Coordinates
version=1
nRows=20
nColumns=30
inDegrees=yes

Units are S.I. units (second, meters, Newtons, ...)
Angles are in degrees.

endheader
time	floatyaw	floatroll	floatpitch	floatx	floaty	floatz	pro_sup_l	deviation_l	flexion_l	cmc_flexion_l	cmc_abduction_l	mp_flexion_l	ip_flexion_l	2mcp_flexion_l	2mcp_abduction_l	2pm_flexion_l	2md_flexion_l	3mcp_flexion_l	3mcp_abduction_l	3pm_flexion_l	3md_flexion_l	4mcp_flexion_l	4mcp_abduction_l	4pm_flexion_l	4md_flexion_l	5mcp_flexion_l	5mcp_abduction_l	5pm_flexion_l	5md_flexion_l
-1.495000	-160.147433	-5.066637	-73.570646	0.077773	-0.181807	-0.017721	101.494232	3.833634	-0.379759	13.444039	8.820582	-26.024556	-41.483361	30.333614	6.699335	43.195021	29.633591	23.814409	4.219650	45.131988	30.183611	12.682388	-4.356266	52.650070	36.338235	1.637442	-7.856630	60.955755	42.294375
-1.485000	-160.147433	-5.066637	-73.570646	0.077773	-0.181805	-0.017718	101.482010	3.826674	-0.375029	13.410208	8.830879	-26.009610	-41.453467	30.335463	6.701186	43.191043	29.630533	23.813810	4.220824	45.132832	30.184805	12.673563	-4.355986	52.662747	36.347249	1.632812	-7.856218	60.957795	42.303125
-1.475000	-160.147433	-5.066637	-73.570646	0.077772	-0.181805	-0.017720	101.475465	3.816895	-0.372177	13.380917	8.828621	-26.002783	-41.422630	30.330221	6.704822	43.190399	29.630419	23.810035	4.221814	45.143420	30.191268	12.665235	-4.357735	52.682694	36.357288	1.623060	-7.857497	60.976609	42.323693
-1.465000	-160.147433	-5.066637	-73.570646	0.077769	-0.181807	-0.017729	101.480713	3.806856	-0.371768	13.360841	8.818606	-26.001814	-41.396356	30.320171	6.711815	43.192648	29.631276	23.803332	4.223196	45.165953	30.202777	12.662734	-4.362611	52.707670	36.365778	1.610056	-7.862566	61.019740	42.357217
-1.455000	-160.147433	-5.066637	-73.570646	0.077763	-0.181805	-0.017748	101.500823	3.799755	-0.373200	13.350194	8.808250	-26.002997	-41.380079	30.309291	6.722485	43.196266	29.630509	23.795693	4.225554	45.196259	30.216068	12.669945	-4.370727	52.732960	36.370228	1.596280	-7.871818	61.086478	42.400226
-1.445000	-160.147433	-5.066637	-73.570646	0.077752	-0.181798	-0.017777	101.534386	3.798267	-0.374861	13.344730	8.804305	-26.003451	-41.377125	30.301128	6.735398	43.199855	29.626615	23.789572	4.229188	45.225521	30.226321	12.686449	-4.380869	52.753450	36.369552	1.583732	-7.883371	61.165552	42.444632
-1.435000	-160.147433	-5.066637	-73.570646	0.077734	-0.181782	-0.017821	101.576220	3.803965	-0.374746	13.337738	8.810663	-26.002490	-41.386927	30.296803	6.747759	43.202986	29.620196	23.786181	4.233830	45.244658	30.229601	12.706736	-4.390780	52.765690	36.364591	1.573392	-7.893769	61.237734	42.479709
-1.425000	-160.147433	-5.066637	-73.570646	0.077711	-0.181757	-0.017880	101.619568	3.817464	-0.371314	13.322981	8.827667	-26.001263	-41.404513	30.294473	6.756564	43.205810	29.613327	23.784627	4.238554	45.248599	30.224653	12.722391	-4.397954	52.768700	36.357425	1.565192	-7.899717	61.283538	42.496048
-1.415000	-160.147433	-5.066637	-73.570646	0.077683	-0.181723	-0.017955	101.658471	3.838919	-0.364375	13.297387	8.852714	-26.001381	-41.422228	30.290633	6.759982	43.207945	29.607797	23.782614	4.242034	45.238119	30.213049	12.726300	-4.400562	52.763503	36.350097	1.558480	-7.899929	61.292544	42.489886
-1.405000	-160.147433	-5.066637	-73.570646	0.077653	-0.181679	-0.018046	101.689215	3.868566	-0.355702	13.262398	8.881802	-26.003868	-41.433315	30.282353	6.758243	43.207851	29.603687	23.778194	4.243101	45.218704	30.198022	12.716339	-4.398138	52.752408	36.343782	1.552941	-7.895831	61.268501	42.465139
-1.395000	-160.147433	-5.066637	-73.570646	0.077619	-0.181626	-0.018152	101.710543	3.907126	-0.348956	13.223164	8.911409	-26.008925	-41.435204	30.268969	6.753531	43.203357	29.599354	23.771201	4.241310	45.197584	30.182959	12.696295	-4.391749	52.738700	36.338923	1.549537	-7.890472	61.226481	42.431471
-1.385000	-160.147433	-5.066637	-73.570646	0.077575	-0.181559	-0.018277	101.723107	3.955961	-0.348688	13.185652	8.939891	-26.015991	-41.430085	30.252321	6.748863	43.192778	29.592615	23.763280	4.237137	45.180574	30.170338	12.673598	-4.383586	52.726245	36.335819	1.550651	-7.886293	61.183824	42.399337
-1.375000	-160.147433	-5.066637	-73.570646	0.077514	-0.181474	-0.018424	101.728698	4.016698	-0.358667	13.153015	8.967756	-26.023581	-41.422275	30.235645	6.746556	43.175633	29.582085	23.756574	4.231738	45.170064	30.161264	12.655510	-4.376092	52.718256	36.334745	1.558923	-7.883413	61.150934	42.375014
-1.365000	-160.147433	-5.066637	-73.570646	0.077427	-0.181365	-0.018599	101.729582	4.090170	-0.380383	13.123248	8.996984	-26.029178	-41.414331	30.221818	6.747146	43.152629	29.567898	23.752003	4.226470	45.164796	30.155520	12.645985	-4.370983	52.715480	36.335380	1.575288	-7.879890	61.127588	42.358408
-1.355000	-160.147433	-5.066637	-73.570646	0.077312	-0.181227	-0.018802	101.728045	4.175145	-0.412733	13.089678	9.030121	-26.029848	-41.404775	30.211795	6.749395	43.125346	29.551716	23.748323	4.222509	45.161276	30.152010	12.644659	-4.368606	52.715192	36.336241	1.597503	-7.873931	61.106191	42.344486
-1.345000	-160.147433	-5.066637	-73.570646	0.077169	-0.181061	-0.019030	101.726401	4.267922	-0.453310	13.044263	9.069647	-26.023705	-41.389099	30.204070	6.751266	43.095964	29.536185	23.742627	4.220645	45.155821	30.149398	12.648049	-4.367924	52.712060	36.334936	1.620340	-7.866403	61.078939	42.327060
-1.335000	-160.147433	-5.066637	-73.570646	0.077004	-0.180867	-0.019276	101.727517	4.363483	-0.500513	12.982207	9.117551	-26.011373	-41.363230	30.195695	6.751114	43.066872	29.523967	23.732186	4.221177	45.145960	30.146600	12.652084	-4.367137	52.700480	36.329337	1.637706	-7.861465	61.043836	42.302733
-1.325000	-160.147433	-5.066637	-73.570646	0.076821	-0.180650	-0.019533	101.735329	4.457590	-0.554971	12.905689	9.175131	-25.996059	-41.326690	30.184697	6.748304	43.040034	29.516624	23.716719	4.223832	45.130627	30.142945	12.654820	-4.364659	52.676930	36.318983	1.645964	-7.864282	61.005652	42.273093
-1.315000	-160.147433	-5.066637	-73.570646	0.076624	-0.180418	-0.019795	101.754367	4.548332	-0.619312	12.824748	9.243295	-25.981618	-41.282999	30.172710	6.743029	43.016487	29.513950	23.699917	4.227787	45.109686	30.138115	12.658303	-4.360066	52.641176	36.305871	1.647185	-7.876899	60.971294	42.244345
-1.305000	-160.147433	-5.066637	-73.570646	0.076413	-0.180177	-0.020057	101.787915	4.636072	-0.696709	12.754370	9.323470	-25.969797	-41.237396	30.165916	6.735785	42.996621	29.514338	23.689107	4.231850	45.083952	30.132241	12.668577	-4.354566	52.596466	36.294222	1.650612	-7.895167	60.942975	42.224808
